<?xml version="1.0" encoding="utf-8"?>
<!-- Generator: Adobe Illustrator 26.0.1, SVG Export Plug-In . SVG Version: 6.00 Build 0)  -->
<svg version="1.1" id="Layer_1" xmlns="http://www.w3.org/2000/svg" xmlns:xlink="http://www.w3.org/1999/xlink" x="0px" y="0px"
	 viewBox="0 0 235 100" style="enable-background:new 0 0 235 100;" xml:space="preserve">
<style type="text/css">
	.st0{fill:none;stroke:#1D1D1B;stroke-width:3.5;stroke-miterlimit:10;}
</style>
<g>
	<line class="st0" x1="10.1" y1="7.8" x2="10.1" y2="41.6"/>
	<line class="st0" x1="10.1" y1="58.4" x2="10.1" y2="92.2"/>
	<line class="st0" x1="71" y1="7.8" x2="71" y2="41.6"/>
	<line class="st0" x1="117.5" y1="16.1" x2="117.5" y2="41.6"/>
	<line class="st0" x1="71" y1="58.4" x2="71" y2="92.2"/>
	<line class="st0" x1="164" y1="58.4" x2="164" y2="83.9"/>
	<line class="st0" x1="117.5" y1="7.8" x2="164" y2="7.8"/>
	<line class="st0" x1="117.5" y1="50" x2="164" y2="50"/>
	<line class="st0" x1="117.5" y1="92.2" x2="164" y2="92.2"/>
	<line class="st0" x1="224.9" y1="16.1" x2="224.9" y2="41.6"/>
	<line class="st0" x1="178.3" y1="58.4" x2="178.3" y2="83.9"/>
	<line class="st0" x1="224.9" y1="7.8" x2="178.3" y2="7.8"/>
	<line class="st0" x1="224.9" y1="50" x2="178.3" y2="50"/>
	<line class="st0" x1="224.9" y1="92.2" x2="178.3" y2="92.2"/>
	<line class="st0" x1="94.2" y1="62.5" x2="94.2" y2="72.1"/>
	<line class="st0" x1="94.2" y1="27.9" x2="94.2" y2="37.5"/>
</g>
</svg>
